<svg width="472" height="532" viewBox="0 0 472 532" fill="none" xmlns="http://www.w3.org/2000/svg">
<path d="M81.7776 170.148C101.651 203.649 152.278 197.148 152.278 159.148C152.278 137.866 135.647 129.977 124.278 131.149C112.408 132.372 105.778 143.148 105.778 143.148C105.778 143.148 114.778 93.9006 173.778 84.1484C234.278 74.1484 264.638 114.649 271.778 125.148C284.018 143.148 286.885 165.572 287.778 192.648C289.278 238.149 287.778 263.043 287.778 308.148C287.778 347.149 270.918 408.796 221.278 420.648C178.286 430.914 128.411 415.786 118.778 372.648C106.718 318.649 148.778 297.648 148.778 297.648C148.778 297.648 126.278 340.201 163.278 349.648C210.278 361.649 224.778 312.649 204.778 283.649C181.52 249.924 144.541 263.172 134.278 266.648C72.2776 287.649 76.9773 349.648 77.2778 356.648C78.9505 395.612 100.272 419.555 134.278 438.648C155.277 450.439 213.777 458.149 246.278 438.648C308.277 401.449 315.278 361.649 315.278 297.648C315.278 254.675 315.278 230.649 312.278 187.648C310.178 157.546 300.778 118.909 280.778 98.6488C242.278 59.6486 198.278 47.6481 146.278 66.6484C94.2776 85.6488 64.2775 140.648 81.7776 170.148Z" fill="url(#paint0_linear_1669_160)"/>
<path d="M71.0226 399.149C101.455 472.649 190.523 468.149 190.523 468.149C190.523 468.149 152.522 481.055 108.023 463.149C75.0223 449.87 47.3799 424.927 33.5226 385.149C16.7795 337.087 30.7575 286.649 58.0225 257.149C88.5224 224.149 125.279 203.698 176.523 188.149C249.023 166.149 295.318 154.859 379.023 136.149C482.86 112.938 467.359 44.5591 465.658 38.1343C465.57 37.8152 465.523 37.6486 465.523 37.6486C465.523 37.6486 465.573 37.8148 465.658 38.1343C467.073 43.308 478.864 88.557 465.523 113.149C449.473 142.731 389.023 158.649 389.023 158.649L171.023 232.649C171.023 232.649 106.72 255.296 84.5225 286.649C58.4177 323.52 53.7402 357.408 71.0226 399.149Z" fill="white"/>
<path d="M372.277 340.148C372.277 242.649 368.277 184.744 368.277 85.1485C368.277 60.1485 364.99 31.4468 386.277 23.1485C415.777 11.6485 435.006 34.681 436.277 57.1485C437.777 83.6485 410.777 107.648 410.777 107.648C410.777 107.648 448.277 94.1485 449.777 50.6485C450.312 35.1486 436.277 11.2805 418.277 4.14858C391.777 -6.35126 370.777 4.64848 357.777 19.6486C338.616 41.7576 341.277 68.1485 341.277 96.6485V305.099C341.279 356.351 341.279 391.716 310.777 433.148C280.759 473.923 241.777 493.817 199.777 500.148C147.839 507.978 106.277 491.063 70.2773 463.149C5.77727 413.135 3.2773 340.649 3.2773 340.649C3.2773 340.649 -3.37623 356.349 2.27723 378.649C11.2772 414.149 22.7148 443.085 48.7772 470.149C75.1892 497.575 99.1458 513.26 135.777 523.649C175.226 534.837 198.873 533.493 238.277 522.148C273.26 512.077 293.074 500.927 318.777 475.148C341.502 452.357 351.806 435.583 362.277 405.148C370.633 380.863 372.277 365.831 372.277 340.148Z" fill="url(#paint1_linear_1669_160)"/>
<defs>
<linearGradient id="paint0_linear_1669_160" x1="415.879" y1="112.571" x2="161.539" y2="356.181" gradientUnits="userSpaceOnUse">
<stop stop-color="#F6D020"/>
<stop offset="1" stop-color="#F9BE04"/>
</linearGradient>
<linearGradient id="paint1_linear_1669_160" x1="57" y1="458" x2="431.5" y2="92.5" gradientUnits="userSpaceOnUse">
<stop stop-color="#F6D020"/>
<stop offset="0.747875" stop-color="#F9BE04"/>
<stop offset="1" stop-color="#F6D020"/>
</linearGradient>
</defs>
</svg>
