<svg width="348" height="882" viewBox="0 0 348 882" fill="none" xmlns="http://www.w3.org/2000/svg">
<path d="M299.014 216.675C267.989 185.463 215.409 214.458 215.409 214.458C215.409 214.458 238.858 191.266 258.521 187.272C283.354 182.228 301.749 186.555 321.376 202.577C342.126 219.517 351.594 248.088 346.759 278.696C339.694 323.423 279.674 369.513 279.674 369.513C279.674 369.513 331.968 389.57 342.126 432.542C358.642 502.418 315.13 568.064 278.868 610.754C247.141 648.105 238.083 676.795 224.676 723.924C207.453 784.466 218.431 882 218.431 882C218.431 882 180.974 789.37 201.307 703.586C212.527 656.247 227.964 631.676 254.693 591.02C287.128 541.685 311.705 523.763 320.57 459.929C327.142 412.607 270.407 376.561 270.407 376.561C270.407 376.561 208.834 412.877 166.857 418.447C129.53 423.401 74.1868 412.406 74.1868 412.406C74.1868 412.406 140.661 408.705 179.348 394.282C231.128 374.977 251.913 356.736 288.739 315.547C305.662 296.62 330.038 247.887 299.014 216.675Z" fill="#272526"/>
<path d="M86.0514 142.857C39.511 166.575 -9.0411 292.878 1.44215 540.755C1.44215 540.755 4.76355 472.44 11.3136 429.196C25.6535 334.523 30.8875 259.786 75.7985 192.528C93.9706 165.314 138.826 151.178 163.616 205.676C208.739 304.874 195.506 403.803 190.41 531.291C186.65 625.354 159.184 770.318 159.184 770.318C159.184 770.318 189.413 688.774 198.468 634.191C227.072 461.761 239.584 365.289 208.739 225.993C198.316 178.92 153.357 108.557 86.0514 142.857Z" fill="#272526"/>
<path d="M162.627 60.8137C162.627 94.4002 142.964 121.627 118.709 121.627C94.4539 121.627 74.7912 94.4002 74.7912 60.8137C74.7912 27.2272 94.4539 0 118.709 0C142.964 0 162.627 27.2272 162.627 60.8137Z" fill="#272526"/>
<path d="M312.511 107.129C312.511 137.601 296.547 162.304 276.853 162.304C257.16 162.304 241.195 137.601 241.195 107.129C241.195 76.6563 257.16 51.9534 276.853 51.9534C296.547 51.9534 312.511 76.6563 312.511 107.129Z" fill="#272526"/>
</svg>
